<?xml version="1.0" standalone="no"?>
<!DOCTYPE svg PUBLIC "-//W3C//DTD SVG 20010904//EN"
 "http://www.w3.org/TR/2001/REC-SVG-20010904/DTD/svg10.dtd">
<svg version="1.0" xmlns="http://www.w3.org/2000/svg"
 width="417.000000pt" height="413.000000pt" viewBox="0 0 417.000000 413.000000"
 preserveAspectRatio="xMidYMid meet">

<g transform="translate(0.000000,413.000000) scale(0.100000,-0.100000)"
fill="#000000" stroke="none">
<path d="M0 2065 l0 -2065 2085 0 2085 0 0 2065 0 2065 -2085 0 -2085 0 0
-2065z m2661 1270 c143 -264 263 -482 265 -484 2 -3 24 14 47 37 24 23 47 42
51 42 5 0 52 -42 105 -92 53 -51 188 -180 301 -287 310 -294 401 -384 398
-392 -2 -4 -159 -171 -349 -371 -190 -200 -361 -380 -378 -401 l-33 -36 56
-28 c31 -15 56 -30 56 -34 0 -9 -470 -992 -479 -1001 -3 -4 -209 89 -456 208
-514 246 -543 259 -552 251 -3 -4 -10 -30 -14 -58 -5 -28 -10 -53 -12 -55 -7
-7 -1091 138 -1101 147 -8 7 108 952 132 1073 l5 29 -66 -7 c-64 -7 -66 -7
-72 16 -3 13 -39 205 -79 428 -41 223 -84 458 -96 523 -13 65 -20 120 -17 124
5 4 744 143 1055 198 39 7 39 14 6 71 -23 39 -25 48 -13 59 23 22 953 524 967
522 7 -1 130 -218 273 -482z"/>
<path d="M1490 3102 c0 -12 41 -241 90 -509 50 -268 90 -496 88 -507 -3 -18
-33 -26 -313 -78 -552 -102 -595 -110 -595 -117 0 -4 235 -38 523 -76 287 -38
524 -72 528 -77 3 -4 -19 -187 -48 -405 -67 -512 -68 -517 -57 -510 5 3 110
217 234 476 124 259 230 471 236 471 7 0 196 -88 420 -195 225 -107 413 -194
417 -192 5 1 -114 119 -265 261 -457 433 -500 477 -485 495 6 8 148 159 315
334 166 175 302 323 302 328 0 6 -37 -10 -82 -35 -46 -24 -220 -119 -388 -211
-368 -199 -467 -251 -473 -245 -2 3 -100 183 -217 400 -117 217 -217 399 -221
405 -5 5 -9 0 -9 -13z"/>
</g>
</svg>
